<?xml version="1.0" encoding="utf-8"?><svg width="auto" height="4370" style="overflow:visible " version="1.1" xmlns="http://www.w3.org/2000/svg"><rect x="20" y="20" width="200" height="40" style="fill:white;stroke:black;stroke-width:1" /><text x="30" y="30" font-size="10" style="fill:blue">html</text><text x="30" y="40" font-size="8" style="fill:black">lang: es</text><rect x="240" y="20" width="200" height="40" style="fill:white;stroke:black;stroke-width:1" /><text x="250" y="30" font-size="10" style="fill:blue">head</text><path d="M220 40 C240 40 220 40 240 40" style="fill:transparent;stroke:black" /><rect x="460" y="20" width="200" height="40" style="fill:white;stroke:black;stroke-width:1" /><text x="470" y="30" font-size="10" style="fill:blue">meta</text><path d="M440 40 C460 40 440 40 460 40" style="fill:transparent;stroke:black" /><text x="470" y="40" font-size="8" style="fill:black">charset: UTF-8</text><rect x="460" y="70" width="200" height="40" style="fill:white;stroke:black;stroke-width:1" /><text x="470" y="80" font-size="10" style="fill:blue">meta</text><path d="M440 40 C460 40 440 90 460 90" style="fill:transparent;stroke:black" /><text x="470" y="90" font-size="8" style="fill:black">name: description</text><text x="470" y="100" font-size="8" style="fill:black">content: Página principal de la pagina web dedicada a la venta de pizzas</text><rect x="460" y="120" width="200" height="40" style="fill:white;stroke:black;stroke-width:1" /><text x="470" y="130" font-size="10" style="fill:blue">meta</text><path d="M440 40 C460 40 440 140 460 140" style="fill:transparent;stroke:black" /><text x="470" y="140" font-size="8" style="fill:black">name: keywords</text><text x="470" y="150" font-size="8" style="fill:black">content: pizzas, pizzeria, carta</text><rect x="460" y="170" width="200" height="40" style="fill:white;stroke:black;stroke-width:1" /><text x="470" y="180" font-size="10" style="fill:blue">link</text><path d="M440 40 C460 40 440 190 460 190" style="fill:transparent;stroke:black" /><text x="470" y="190" font-size="8" style="fill:black">rel: icon</text><text x="470" y="200" font-size="8" style="fill:black">href: ../img/iconoPizza.jpg</text><text x="470" y="210" font-size="8" style="fill:black">type: image/jpg</text><rect x="460" y="220" width="200" height="40" style="fill:white;stroke:black;stroke-width:1" /><text x="470" y="230" font-size="10" style="fill:blue">script</text><path d="M440 40 C460 40 440 240 460 240" style="fill:transparent;stroke:black" /><text x="470" y="240" font-size="8" style="fill:black">src: https://ajax.googleapis.com/ajax/libs/jquery/3.3.1/jquery.min.js</text><rect x="460" y="270" width="200" height="40" style="fill:white;stroke:black;stroke-width:1" /><text x="470" y="280" font-size="10" style="fill:blue">script</text><path d="M440 40 C460 40 440 290 460 290" style="fill:transparent;stroke:black" /><text x="470" y="290" font-size="8" style="fill:black">src: ../js/reloj.js</text><rect x="460" y="320" width="200" height="40" style="fill:white;stroke:black;stroke-width:1" /><text x="470" y="330" font-size="10" style="fill:blue">link</text><path d="M440 40 C460 40 440 340 460 340" style="fill:transparent;stroke:black" /><text x="470" y="340" font-size="8" style="fill:black">href: ../css/reloj.css</text><text x="470" y="350" font-size="8" style="fill:black">rel: stylesheet</text><text x="470" y="360" font-size="8" style="fill:black">type: text/css</text><rect x="460" y="370" width="200" height="40" style="fill:white;stroke:black;stroke-width:1" /><text x="470" y="380" font-size="10" style="fill:blue">link</text><path d="M440 40 C460 40 440 390 460 390" style="fill:transparent;stroke:black" /><text x="470" y="390" font-size="8" style="fill:black">href: ../css/estilos.css</text><text x="470" y="400" font-size="8" style="fill:black">rel: stylesheet</text><text x="470" y="410" font-size="8" style="fill:black">type: text/css</text><rect x="460" y="420" width="200" height="40" style="fill:white;stroke:black;stroke-width:1" /><text x="470" y="430" font-size="10" style="fill:blue">link</text><path d="M440 40 C460 40 440 440 460 440" style="fill:transparent;stroke:black" /><text x="470" y="440" font-size="8" style="fill:black">href: ../css/navBar.css</text><text x="470" y="450" font-size="8" style="fill:black">rel: stylesheet</text><text x="470" y="460" font-size="8" style="fill:black">type: text/css</text><rect x="460" y="470" width="200" height="40" style="fill:white;stroke:black;stroke-width:1" /><text x="470" y="480" font-size="10" style="fill:blue">link</text><path d="M440 40 C460 40 440 490 460 490" style="fill:transparent;stroke:black" /><text x="470" y="490" font-size="8" style="fill:black">href: ../css/formulario.css</text><text x="470" y="500" font-size="8" style="fill:black">rel: stylesheet</text><text x="470" y="510" font-size="8" style="fill:black">type: text/css</text><rect x="460" y="520" width="200" height="40" style="fill:white;stroke:black;stroke-width:1" /><text x="470" y="530" font-size="10" style="fill:blue">title</text><path d="M440 40 C460 40 440 540 460 540" style="fill:transparent;stroke:black" /><rect x="526" y="520" width="137" height="40" style="fill:green;stroke:black;stroke-width:1" /><text x="536" y="530" font-size="8" style="fill:white">Pizzería EII</text><rect x="240" y="620" width="200" height="40" style="fill:white;stroke:black;stroke-width:1" /><text x="250" y="630" font-size="10" style="fill:blue">body</text><path d="M220 40 C240 40 220 640 240 640" style="fill:transparent;stroke:black" /><rect x="460" y="620" width="200" height="40" style="fill:white;stroke:black;stroke-width:1" /><text x="470" y="630" font-size="10" style="fill:blue">div</text><path d="M440 640 C460 640 440 640 460 640" style="fill:transparent;stroke:black" /><text x="470" y="640" font-size="8" style="fill:black">id: clockDate</text><rect x="680" y="620" width="200" height="40" style="fill:white;stroke:black;stroke-width:1" /><text x="690" y="630" font-size="10" style="fill:blue">p</text><path d="M660 640 C680 640 660 640 680 640" style="fill:transparent;stroke:black" /><text x="690" y="640" font-size="8" style="fill:black">id: date</text><rect x="680" y="670" width="200" height="40" style="fill:white;stroke:black;stroke-width:1" /><text x="690" y="680" font-size="10" style="fill:blue">ul</text><path d="M660 640 C680 640 660 690 680 690" style="fill:transparent;stroke:black" /><text x="690" y="690" font-size="8" style="fill:black">id: clock</text><rect x="900" y="670" width="200" height="40" style="fill:white;stroke:black;stroke-width:1" /><text x="910" y="680" font-size="10" style="fill:blue">li</text><path d="M880 690 C900 690 880 690 900 690" style="fill:transparent;stroke:black" /><text x="910" y="690" font-size="8" style="fill:black">id: hours</text><rect x="900" y="720" width="200" height="40" style="fill:white;stroke:black;stroke-width:1" /><text x="910" y="730" font-size="10" style="fill:blue">li</text><path d="M880 690 C900 690 880 740 900 740" style="fill:transparent;stroke:black" /><text x="910" y="740" font-size="8" style="fill:black">class: dot</text><rect x="966" y="720" width="137" height="40" style="fill:green;stroke:black;stroke-width:1" /><text x="976" y="730" font-size="8" style="fill:white">:</text><rect x="900" y="770" width="200" height="40" style="fill:white;stroke:black;stroke-width:1" /><text x="910" y="780" font-size="10" style="fill:blue">li</text><path d="M880 690 C900 690 880 790 900 790" style="fill:transparent;stroke:black" /><text x="910" y="790" font-size="8" style="fill:black">id: minutes</text><rect x="900" y="820" width="200" height="40" style="fill:white;stroke:black;stroke-width:1" /><text x="910" y="830" font-size="10" style="fill:blue">li</text><path d="M880 690 C900 690 880 840 900 840" style="fill:transparent;stroke:black" /><text x="910" y="840" font-size="8" style="fill:black">class: dot</text><rect x="966" y="820" width="137" height="40" style="fill:green;stroke:black;stroke-width:1" /><text x="976" y="830" font-size="8" style="fill:white">:</text><rect x="900" y="870" width="200" height="40" style="fill:white;stroke:black;stroke-width:1" /><text x="910" y="880" font-size="10" style="fill:blue">li</text><path d="M880 690 C900 690 880 890 900 890" style="fill:transparent;stroke:black" /><text x="910" y="890" font-size="8" style="fill:black">id: seconds</text><rect x="460" y="1020" width="200" height="40" style="fill:white;stroke:black;stroke-width:1" /><text x="470" y="1030" font-size="10" style="fill:blue">header</text><path d="M440 640 C460 640 440 1040 460 1040" style="fill:transparent;stroke:black" /><rect x="680" y="1020" width="200" height="40" style="fill:white;stroke:black;stroke-width:1" /><text x="690" y="1030" font-size="10" style="fill:blue">a</text><path d="M660 1040 C680 1040 660 1040 680 1040" style="fill:transparent;stroke:black" /><text x="690" y="1040" font-size="8" style="fill:black">href: ../index.html</text><text x="690" y="1050" font-size="8" style="fill:black">title: Ir a la página principal</text><rect x="900" y="1020" width="200" height="40" style="fill:white;stroke:black;stroke-width:1" /><text x="910" y="1030" font-size="10" style="fill:blue">img</text><path d="M880 1040 C900 1040 880 1040 900 1040" style="fill:transparent;stroke:black" /><text x="910" y="1040" font-size="8" style="fill:black">src: ../img/PizzeriaEII.png</text><text x="910" y="1050" font-size="8" style="fill:black">alt: Pizzeria EII</text><rect x="460" y="1170" width="200" height="40" style="fill:white;stroke:black;stroke-width:1" /><text x="470" y="1180" font-size="10" style="fill:blue">nav</text><path d="M440 640 C460 640 440 1190 460 1190" style="fill:transparent;stroke:black" /><rect x="680" y="1170" width="200" height="40" style="fill:white;stroke:black;stroke-width:1" /><text x="690" y="1180" font-size="10" style="fill:blue">ul</text><path d="M660 1190 C680 1190 660 1190 680 1190" style="fill:transparent;stroke:black" /><text x="690" y="1190" font-size="8" style="fill:black">id: lista_menu</text><rect x="900" y="1170" width="200" height="40" style="fill:white;stroke:black;stroke-width:1" /><text x="910" y="1180" font-size="10" style="fill:blue">li</text><path d="M880 1190 C900 1190 880 1190 900 1190" style="fill:transparent;stroke:black" /><rect x="1120" y="1170" width="200" height="40" style="fill:white;stroke:black;stroke-width:1" /><text x="1130" y="1180" font-size="10" style="fill:blue">a</text><path d="M1100 1190 C1120 1190 1100 1190 1120 1190" style="fill:transparent;stroke:black" /><text x="1130" y="1190" font-size="8" style="fill:black">href: ../index.html</text><rect x="1186" y="1170" width="137" height="40" style="fill:green;stroke:black;stroke-width:1" /><text x="1196" y="1180" font-size="8" style="fill:white">Principal</text><rect x="900" y="1270" width="200" height="40" style="fill:white;stroke:black;stroke-width:1" /><text x="910" y="1280" font-size="10" style="fill:blue">li</text><path d="M880 1190 C900 1190 880 1290 900 1290" style="fill:transparent;stroke:black" /><rect x="1120" y="1270" width="200" height="40" style="fill:white;stroke:black;stroke-width:1" /><text x="1130" y="1280" font-size="10" style="fill:blue">a</text><path d="M1100 1290 C1120 1290 1100 1290 1120 1290" style="fill:transparent;stroke:black" /><text x="1130" y="1290" font-size="8" style="fill:black">href: conocenos.html</text><rect x="1186" y="1270" width="137" height="40" style="fill:green;stroke:black;stroke-width:1" /><text x="1196" y="1280" font-size="8" style="fill:white">Conócenos</text><rect x="900" y="1370" width="200" height="40" style="fill:white;stroke:black;stroke-width:1" /><text x="910" y="1380" font-size="10" style="fill:blue">li</text><path d="M880 1190 C900 1190 880 1390 900 1390" style="fill:transparent;stroke:black" /><rect x="1120" y="1370" width="200" height="40" style="fill:white;stroke:black;stroke-width:1" /><text x="1130" y="1380" font-size="10" style="fill:blue">a</text><path d="M1100 1390 C1120 1390 1100 1390 1120 1390" style="fill:transparent;stroke:black" /><text x="1130" y="1390" font-size="8" style="fill:black">href: productos.html</text><rect x="1186" y="1370" width="137" height="40" style="fill:green;stroke:black;stroke-width:1" /><text x="1196" y="1380" font-size="8" style="fill:white">Productos</text><rect x="1120" y="1420" width="200" height="40" style="fill:white;stroke:black;stroke-width:1" /><text x="1130" y="1430" font-size="10" style="fill:blue">ul</text><path d="M1100 1390 C1120 1390 1100 1440 1120 1440" style="fill:transparent;stroke:black" /><rect x="1340" y="1420" width="200" height="40" style="fill:white;stroke:black;stroke-width:1" /><text x="1350" y="1430" font-size="10" style="fill:blue">li</text><path d="M1320 1440 C1340 1440 1320 1440 1340 1440" style="fill:transparent;stroke:black" /><rect x="1560" y="1420" width="200" height="40" style="fill:white;stroke:black;stroke-width:1" /><text x="1570" y="1430" font-size="10" style="fill:blue">a</text><path d="M1540 1440 C1560 1440 1540 1440 1560 1440" style="fill:transparent;stroke:black" /><text x="1570" y="1440" font-size="8" style="fill:black">href: ../xml/pizzas.xml</text><rect x="1626" y="1420" width="137" height="40" style="fill:green;stroke:black;stroke-width:1" /><text x="1636" y="1430" font-size="8" style="fill:white">Pizzas</text><rect x="1340" y="1520" width="200" height="40" style="fill:white;stroke:black;stroke-width:1" /><text x="1350" y="1530" font-size="10" style="fill:blue">li</text><path d="M1320 1440 C1340 1440 1320 1540 1340 1540" style="fill:transparent;stroke:black" /><rect x="1560" y="1520" width="200" height="40" style="fill:white;stroke:black;stroke-width:1" /><text x="1570" y="1530" font-size="10" style="fill:blue">a</text><path d="M1540 1540 C1560 1540 1540 1540 1560 1540" style="fill:transparent;stroke:black" /><text x="1570" y="1540" font-size="8" style="fill:black">href: ../xml/pizzasEspeciales.xml</text><rect x="1626" y="1520" width="137" height="40" style="fill:green;stroke:black;stroke-width:1" /><text x="1636" y="1530" font-size="8" style="fill:white">Pizzas Especiales</text><rect x="900" y="1720" width="200" height="40" style="fill:white;stroke:black;stroke-width:1" /><text x="910" y="1730" font-size="10" style="fill:blue">li</text><path d="M880 1190 C900 1190 880 1740 900 1740" style="fill:transparent;stroke:black" /><rect x="1120" y="1720" width="200" height="40" style="fill:white;stroke:black;stroke-width:1" /><text x="1130" y="1730" font-size="10" style="fill:blue">a</text><path d="M1100 1740 C1120 1740 1100 1740 1120 1740" style="fill:transparent;stroke:black" /><text x="1130" y="1740" font-size="8" style="fill:black">href: contacto.html</text><rect x="1186" y="1720" width="137" height="40" style="fill:green;stroke:black;stroke-width:1" /><text x="1196" y="1730" font-size="8" style="fill:white">Contacto</text><rect x="900" y="1820" width="200" height="40" style="fill:white;stroke:black;stroke-width:1" /><text x="910" y="1830" font-size="10" style="fill:blue">li</text><path d="M880 1190 C900 1190 880 1840 900 1840" style="fill:transparent;stroke:black" /><rect x="1120" y="1820" width="200" height="40" style="fill:white;stroke:black;stroke-width:1" /><text x="1130" y="1830" font-size="10" style="fill:blue">a</text><path d="M1100 1840 C1120 1840 1100 1840 1120 1840" style="fill:transparent;stroke:black" /><text x="1130" y="1840" font-size="8" style="fill:black">href: locales.html</text><rect x="1186" y="1820" width="137" height="40" style="fill:green;stroke:black;stroke-width:1" /><text x="1196" y="1830" font-size="8" style="fill:white">Locales</text><rect x="460" y="2020" width="200" height="40" style="fill:white;stroke:black;stroke-width:1" /><text x="470" y="2030" font-size="10" style="fill:blue">main</text><path d="M440 640 C460 640 440 2040 460 2040" style="fill:transparent;stroke:black" /><rect x="680" y="2020" width="200" height="40" style="fill:white;stroke:black;stroke-width:1" /><text x="690" y="2030" font-size="10" style="fill:blue">section</text><path d="M660 2040 C680 2040 660 2040 680 2040" style="fill:transparent;stroke:black" /><rect x="900" y="2020" width="200" height="40" style="fill:white;stroke:black;stroke-width:1" /><text x="910" y="2030" font-size="10" style="fill:blue">h2</text><path d="M880 2040 C900 2040 880 2040 900 2040" style="fill:transparent;stroke:black" /><rect x="966" y="2020" width="137" height="40" style="fill:green;stroke:black;stroke-width:1" /><text x="976" y="2030" font-size="8" style="fill:white">Datos Personales</text><rect x="900" y="2070" width="200" height="40" style="fill:white;stroke:black;stroke-width:1" /><text x="910" y="2080" font-size="10" style="fill:blue">p</text><path d="M880 2040 C900 2040 880 2090 900 2090" style="fill:transparent;stroke:black" /><rect x="966" y="2070" width="137" height="40" style="fill:green;stroke:black;stroke-width:1" /><text x="976" y="2080" font-size="8" style="fill:white">Rellene los campos para formalizar su reserva.</text><rect x="900" y="2120" width="200" height="40" style="fill:white;stroke:black;stroke-width:1" /><text x="910" y="2130" font-size="10" style="fill:blue">form</text><path d="M880 2040 C900 2040 880 2140 900 2140" style="fill:transparent;stroke:black" /><text x="910" y="2140" font-size="8" style="fill:black">name: reserva</text><rect x="1120" y="2120" width="200" height="40" style="fill:white;stroke:black;stroke-width:1" /><text x="1130" y="2130" font-size="10" style="fill:blue">label</text><path d="M1100 2140 C1120 2140 1100 2140 1120 2140" style="fill:transparent;stroke:black" /><text x="1130" y="2140" font-size="8" style="fill:black">for: nombre</text><rect x="1186" y="2120" width="137" height="40" style="fill:green;stroke:black;stroke-width:1" /><text x="1196" y="2130" font-size="8" style="fill:white">Nombre:*</text><rect x="1340" y="2120" width="200" height="40" style="fill:white;stroke:black;stroke-width:1" /><text x="1350" y="2130" font-size="10" style="fill:blue">br</text><path d="M1320 2140 C1340 2140 1320 2140 1340 2140" style="fill:transparent;stroke:black" /><rect x="1120" y="2220" width="200" height="40" style="fill:white;stroke:black;stroke-width:1" /><text x="1130" y="2230" font-size="10" style="fill:blue">input</text><path d="M1100 2140 C1120 2140 1100 2240 1120 2240" style="fill:transparent;stroke:black" /><text x="1130" y="2240" font-size="8" style="fill:black">id: nombre</text><text x="1130" y="2250" font-size="8" style="fill:black">type: text</text><text x="1130" y="2260" font-size="8" style="fill:black">name: nombre</text><text x="1130" y="2270" font-size="8" style="fill:black">placeholder: Martín</text><text x="1130" y="2280" font-size="8" style="fill:black">pattern: [A-Za-z]{3,}</text><text x="1130" y="2290" font-size="8" style="fill:black">maxlength: 10</text><text x="1130" y="2300" font-size="8" style="fill:black">required: required</text><rect x="1120" y="2270" width="200" height="40" style="fill:white;stroke:black;stroke-width:1" /><text x="1130" y="2280" font-size="10" style="fill:blue">br</text><path d="M1100 2140 C1120 2140 1100 2290 1120 2290" style="fill:transparent;stroke:black" /><rect x="1120" y="2320" width="200" height="40" style="fill:white;stroke:black;stroke-width:1" /><text x="1130" y="2330" font-size="10" style="fill:blue">label</text><path d="M1100 2140 C1120 2140 1100 2340 1120 2340" style="fill:transparent;stroke:black" /><text x="1130" y="2340" font-size="8" style="fill:black">for: apellidos</text><rect x="1186" y="2320" width="137" height="40" style="fill:green;stroke:black;stroke-width:1" /><text x="1196" y="2330" font-size="8" style="fill:white">Apellidos:*</text><rect x="1340" y="2320" width="200" height="40" style="fill:white;stroke:black;stroke-width:1" /><text x="1350" y="2330" font-size="10" style="fill:blue">br</text><path d="M1320 2340 C1340 2340 1320 2340 1340 2340" style="fill:transparent;stroke:black" /><rect x="1120" y="2420" width="200" height="40" style="fill:white;stroke:black;stroke-width:1" /><text x="1130" y="2430" font-size="10" style="fill:blue">input</text><path d="M1100 2140 C1120 2140 1100 2440 1120 2440" style="fill:transparent;stroke:black" /><text x="1130" y="2440" font-size="8" style="fill:black">id: apellidos</text><text x="1130" y="2450" font-size="8" style="fill:black">type: text</text><text x="1130" y="2460" font-size="8" style="fill:black">name: apellidos</text><text x="1130" y="2470" font-size="8" style="fill:black">placeholder: Pelaez Diaz</text><text x="1130" y="2480" font-size="8" style="fill:black">pattern: [A-Za-z]{3,}</text><text x="1130" y="2490" font-size="8" style="fill:black">maxlength: 25</text><text x="1130" y="2500" font-size="8" style="fill:black">required: required</text><rect x="1120" y="2470" width="200" height="40" style="fill:white;stroke:black;stroke-width:1" /><text x="1130" y="2480" font-size="10" style="fill:blue">br</text><path d="M1100 2140 C1120 2140 1100 2490 1120 2490" style="fill:transparent;stroke:black" /><rect x="1120" y="2520" width="200" height="40" style="fill:white;stroke:black;stroke-width:1" /><text x="1130" y="2530" font-size="10" style="fill:blue">label</text><path d="M1100 2140 C1120 2140 1100 2540 1120 2540" style="fill:transparent;stroke:black" /><text x="1130" y="2540" font-size="8" style="fill:black">for: email</text><rect x="1186" y="2520" width="137" height="40" style="fill:green;stroke:black;stroke-width:1" /><text x="1196" y="2530" font-size="8" style="fill:white">Email:*</text><rect x="1340" y="2520" width="200" height="40" style="fill:white;stroke:black;stroke-width:1" /><text x="1350" y="2530" font-size="10" style="fill:blue">br</text><path d="M1320 2540 C1340 2540 1320 2540 1340 2540" style="fill:transparent;stroke:black" /><rect x="1120" y="2620" width="200" height="40" style="fill:white;stroke:black;stroke-width:1" /><text x="1130" y="2630" font-size="10" style="fill:blue">input</text><path d="M1100 2140 C1120 2140 1100 2640 1120 2640" style="fill:transparent;stroke:black" /><text x="1130" y="2640" font-size="8" style="fill:black">id: email</text><text x="1130" y="2650" font-size="8" style="fill:black">type: email</text><text x="1130" y="2660" font-size="8" style="fill:black">name: email</text><text x="1130" y="2670" font-size="8" style="fill:black">placeholder: ejemplo@ejemplo.com</text><text x="1130" y="2680" font-size="8" style="fill:black">required: required</text><rect x="1120" y="2670" width="200" height="40" style="fill:white;stroke:black;stroke-width:1" /><text x="1130" y="2680" font-size="10" style="fill:blue">br</text><path d="M1100 2140 C1120 2140 1100 2690 1120 2690" style="fill:transparent;stroke:black" /><rect x="1120" y="2720" width="200" height="40" style="fill:white;stroke:black;stroke-width:1" /><text x="1130" y="2730" font-size="10" style="fill:blue">div</text><path d="M1100 2140 C1120 2140 1100 2740 1120 2740" style="fill:transparent;stroke:black" /><text x="1130" y="2740" font-size="8" style="fill:black">id: botonesForm</text><rect x="1340" y="2720" width="200" height="40" style="fill:white;stroke:black;stroke-width:1" /><text x="1350" y="2730" font-size="10" style="fill:blue">input</text><path d="M1320 2740 C1340 2740 1320 2740 1340 2740" style="fill:transparent;stroke:black" /><text x="1350" y="2740" font-size="8" style="fill:black">class: botonesForm</text><text x="1350" y="2750" font-size="8" style="fill:black">type: button</text><text x="1350" y="2760" font-size="8" style="fill:black">id: grabar</text><text x="1350" y="2770" font-size="8" style="fill:black">value: Grabar Pedido</text><rect x="1340" y="2770" width="200" height="40" style="fill:white;stroke:black;stroke-width:1" /><text x="1350" y="2780" font-size="10" style="fill:blue">input</text><path d="M1320 2740 C1340 2740 1320 2790 1340 2790" style="fill:transparent;stroke:black" /><text x="1350" y="2790" font-size="8" style="fill:black">class: botonesForm</text><text x="1350" y="2800" font-size="8" style="fill:black">type: button</text><text x="1350" y="2810" font-size="8" style="fill:black">id: borrar</text><text x="1350" y="2820" font-size="8" style="fill:black">value: Borrar información</text><rect x="460" y="3020" width="200" height="40" style="fill:white;stroke:black;stroke-width:1" /><text x="470" y="3030" font-size="10" style="fill:blue">footer</text><path d="M440 640 C460 640 440 3040 460 3040" style="fill:transparent;stroke:black" /><rect x="680" y="3020" width="200" height="40" style="fill:white;stroke:black;stroke-width:1" /><text x="690" y="3030" font-size="10" style="fill:blue">div</text><path d="M660 3040 C680 3040 660 3040 680 3040" style="fill:transparent;stroke:black" /><text x="690" y="3040" font-size="8" style="fill:black">id: copy</text><rect x="900" y="3020" width="200" height="40" style="fill:white;stroke:black;stroke-width:1" /><text x="910" y="3030" font-size="10" style="fill:blue">span</text><path d="M880 3040 C900 3040 880 3040 900 3040" style="fill:transparent;stroke:black" /><text x="910" y="3040" font-size="8" style="fill:black">class: copy</text><rect x="966" y="3020" width="137" height="40" style="fill:green;stroke:black;stroke-width:1" /><text x="976" y="3030" font-size="8" style="fill:white"> Copyright 2018 - Pizzería EII -  Derechos reservados
        </text><rect x="900" y="3070" width="200" height="40" style="fill:white;stroke:black;stroke-width:1" /><text x="910" y="3080" font-size="10" style="fill:blue">span</text><path d="M880 3040 C900 3040 880 3090 900 3090" style="fill:transparent;stroke:black" /><text x="910" y="3090" font-size="8" style="fill:black">class: contacto_footer</text><rect x="966" y="3070" width="137" height="40" style="fill:green;stroke:black;stroke-width:1" /><text x="976" y="3080" font-size="8" style="fill:white">
                Pagina web hecha por:
                </text><rect x="1120" y="3070" width="200" height="40" style="fill:white;stroke:black;stroke-width:1" /><text x="1130" y="3080" font-size="10" style="fill:blue">a</text><path d="M1100 3090 C1120 3090 1100 3090 1120 3090" style="fill:transparent;stroke:black" /><text x="1130" y="3090" font-size="8" style="fill:black">href: mailto:uo236974@uniovi.es</text><rect x="1186" y="3070" width="137" height="40" style="fill:green;stroke:black;stroke-width:1" /><text x="1196" y="3080" font-size="8" style="fill:white">Martín Peláez Díaz</text><rect x="680" y="3220" width="200" height="40" style="fill:white;stroke:black;stroke-width:1" /><text x="690" y="3230" font-size="10" style="fill:blue">div</text><path d="M660 3040 C680 3040 660 3240 680 3240" style="fill:transparent;stroke:black" /><text x="690" y="3240" font-size="8" style="fill:black">class: mapa_web</text><rect x="900" y="3220" width="200" height="40" style="fill:white;stroke:black;stroke-width:1" /><text x="910" y="3230" font-size="10" style="fill:blue">h3</text><path d="M880 3240 C900 3240 880 3240 900 3240" style="fill:transparent;stroke:black" /><rect x="966" y="3220" width="137" height="40" style="fill:green;stroke:black;stroke-width:1" /><text x="976" y="3230" font-size="8" style="fill:white">Mapa web</text><rect x="900" y="3270" width="200" height="40" style="fill:white;stroke:black;stroke-width:1" /><text x="910" y="3280" font-size="10" style="fill:blue">ul</text><path d="M880 3240 C900 3240 880 3290 900 3290" style="fill:transparent;stroke:black" /><rect x="1120" y="3270" width="200" height="40" style="fill:white;stroke:black;stroke-width:1" /><text x="1130" y="3280" font-size="10" style="fill:blue">li</text><path d="M1100 3290 C1120 3290 1100 3290 1120 3290" style="fill:transparent;stroke:black" /><rect x="1340" y="3270" width="200" height="40" style="fill:white;stroke:black;stroke-width:1" /><text x="1350" y="3280" font-size="10" style="fill:blue">a</text><path d="M1320 3290 C1340 3290 1320 3290 1340 3290" style="fill:transparent;stroke:black" /><text x="1350" y="3290" font-size="8" style="fill:black">href: ../index.html</text><rect x="1406" y="3270" width="137" height="40" style="fill:green;stroke:black;stroke-width:1" /><text x="1416" y="3280" font-size="8" style="fill:white">Principal</text><rect x="1120" y="3370" width="200" height="40" style="fill:white;stroke:black;stroke-width:1" /><text x="1130" y="3380" font-size="10" style="fill:blue">li</text><path d="M1100 3290 C1120 3290 1100 3390 1120 3390" style="fill:transparent;stroke:black" /><rect x="1340" y="3370" width="200" height="40" style="fill:white;stroke:black;stroke-width:1" /><text x="1350" y="3380" font-size="10" style="fill:blue">a</text><path d="M1320 3390 C1340 3390 1320 3390 1340 3390" style="fill:transparent;stroke:black" /><text x="1350" y="3390" font-size="8" style="fill:black">href: conocenos.html</text><rect x="1406" y="3370" width="137" height="40" style="fill:green;stroke:black;stroke-width:1" /><text x="1416" y="3380" font-size="8" style="fill:white">Conócenos</text><rect x="1120" y="3470" width="200" height="40" style="fill:white;stroke:black;stroke-width:1" /><text x="1130" y="3480" font-size="10" style="fill:blue">li</text><path d="M1100 3290 C1120 3290 1100 3490 1120 3490" style="fill:transparent;stroke:black" /><rect x="1340" y="3470" width="200" height="40" style="fill:white;stroke:black;stroke-width:1" /><text x="1350" y="3480" font-size="10" style="fill:blue">a</text><path d="M1320 3490 C1340 3490 1320 3490 1340 3490" style="fill:transparent;stroke:black" /><text x="1350" y="3490" font-size="8" style="fill:black">href: productos.html</text><rect x="1406" y="3470" width="137" height="40" style="fill:green;stroke:black;stroke-width:1" /><text x="1416" y="3480" font-size="8" style="fill:white">Productos</text><rect x="1120" y="3570" width="200" height="40" style="fill:white;stroke:black;stroke-width:1" /><text x="1130" y="3580" font-size="10" style="fill:blue">li</text><path d="M1100 3290 C1120 3290 1100 3590 1120 3590" style="fill:transparent;stroke:black" /><rect x="1340" y="3570" width="200" height="40" style="fill:white;stroke:black;stroke-width:1" /><text x="1350" y="3580" font-size="10" style="fill:blue">a</text><path d="M1320 3590 C1340 3590 1320 3590 1340 3590" style="fill:transparent;stroke:black" /><text x="1350" y="3590" font-size="8" style="fill:black">href: contacto.html</text><rect x="1406" y="3570" width="137" height="40" style="fill:green;stroke:black;stroke-width:1" /><text x="1416" y="3580" font-size="8" style="fill:white">Contacto</text><rect x="1120" y="3670" width="200" height="40" style="fill:white;stroke:black;stroke-width:1" /><text x="1130" y="3680" font-size="10" style="fill:blue">li</text><path d="M1100 3290 C1120 3290 1100 3690 1120 3690" style="fill:transparent;stroke:black" /><rect x="1340" y="3670" width="200" height="40" style="fill:white;stroke:black;stroke-width:1" /><text x="1350" y="3680" font-size="10" style="fill:blue">a</text><path d="M1320 3690 C1340 3690 1320 3690 1340 3690" style="fill:transparent;stroke:black" /><text x="1350" y="3690" font-size="8" style="fill:black">href: locales.html</text><rect x="1406" y="3670" width="137" height="40" style="fill:green;stroke:black;stroke-width:1" /><text x="1416" y="3680" font-size="8" style="fill:white">Locales</text><rect x="680" y="3870" width="200" height="40" style="fill:white;stroke:black;stroke-width:1" /><text x="690" y="3880" font-size="10" style="fill:blue">div</text><path d="M660 3040 C680 3040 660 3890 680 3890" style="fill:transparent;stroke:black" /><text x="690" y="3890" font-size="8" style="fill:black">class: accesibilidad</text><rect x="900" y="3870" width="200" height="40" style="fill:white;stroke:black;stroke-width:1" /><text x="910" y="3880" font-size="10" style="fill:blue">h3</text><path d="M880 3890 C900 3890 880 3890 900 3890" style="fill:transparent;stroke:black" /><rect x="966" y="3870" width="137" height="40" style="fill:green;stroke:black;stroke-width:1" /><text x="976" y="3880" font-size="8" style="fill:white">Sobre la accesibilidad</text><rect x="900" y="3920" width="200" height="40" style="fill:white;stroke:black;stroke-width:1" /><text x="910" y="3930" font-size="10" style="fill:blue">p</text><path d="M880 3890 C900 3890 880 3940 900 3940" style="fill:transparent;stroke:black" /><rect x="966" y="3920" width="137" height="40" style="fill:green;stroke:black;stroke-width:1" /><text x="976" y="3930" font-size="8" style="fill:white">Web optimizada para su uso en los siguientes navegadores:</text><rect x="1120" y="3920" width="200" height="40" style="fill:white;stroke:black;stroke-width:1" /><text x="1130" y="3930" font-size="10" style="fill:blue">br</text><path d="M1100 3940 C1120 3940 1100 3940 1120 3940" style="fill:transparent;stroke:black" /><rect x="966" y="3970" width="137" height="40" style="fill:green;stroke:black;stroke-width:1" /><text x="976" y="3980" font-size="8" style="fill:white">
            Internet Explorer 8, Firefox 2.0 o superior, Safari, Ópera y Chrome.</text><rect x="1120" y="3970" width="200" height="40" style="fill:white;stroke:black;stroke-width:1" /><text x="1130" y="3980" font-size="10" style="fill:blue">br</text><path d="M1100 3940 C1120 3940 1100 3990 1120 3990" style="fill:transparent;stroke:black" /><rect x="966" y="4020" width="137" height="40" style="fill:green;stroke:black;stroke-width:1" /><text x="976" y="4030" font-size="8" style="fill:white">
            Sitio web creado con CSS &amp; HTML válidos. • Accesibilidad AAA.</text><rect x="680" y="4120" width="200" height="40" style="fill:white;stroke:black;stroke-width:1" /><text x="690" y="4130" font-size="10" style="fill:blue">div</text><path d="M660 3040 C680 3040 660 4140 680 4140" style="fill:transparent;stroke:black" /><text x="690" y="4140" font-size="8" style="fill:black">class: clear</text><rect x="460" y="4220" width="200" height="40" style="fill:white;stroke:black;stroke-width:1" /><text x="470" y="4230" font-size="10" style="fill:blue">script</text><path d="M440 640 C460 640 440 4240 460 4240" style="fill:transparent;stroke:black" /><text x="470" y="4240" font-size="8" style="fill:black">src: ../js/tramitarPedido.js</text></svg>