<?xml version="1.0" encoding="utf-8"?><svg width="auto" height="3520" style="overflow:visible " version="1.1" xmlns="http://www.w3.org/2000/svg"><rect x="20" y="20" width="200" height="40" style="fill:white;stroke:black;stroke-width:1" /><text x="30" y="30" font-size="10" style="fill:blue">html</text><text x="30" y="40" font-size="8" style="fill:black">lang: es</text><rect x="240" y="20" width="200" height="40" style="fill:white;stroke:black;stroke-width:1" /><text x="250" y="30" font-size="10" style="fill:blue">head</text><path d="M220 40 C240 40 220 40 240 40" style="fill:transparent;stroke:black" /><rect x="460" y="20" width="200" height="40" style="fill:white;stroke:black;stroke-width:1" /><text x="470" y="30" font-size="10" style="fill:blue">meta</text><path d="M440 40 C460 40 440 40 460 40" style="fill:transparent;stroke:black" /><text x="470" y="40" font-size="8" style="fill:black">charset: UTF-8</text><rect x="460" y="70" width="200" height="40" style="fill:white;stroke:black;stroke-width:1" /><text x="470" y="80" font-size="10" style="fill:blue">meta</text><path d="M440 40 C460 40 440 90 460 90" style="fill:transparent;stroke:black" /><text x="470" y="90" font-size="8" style="fill:black">name: author</text><text x="470" y="100" font-size="8" style="fill:black">content: Martin Pelaez Diaz</text><rect x="460" y="120" width="200" height="40" style="fill:white;stroke:black;stroke-width:1" /><text x="470" y="130" font-size="10" style="fill:blue">meta</text><path d="M440 40 C460 40 440 140 460 140" style="fill:transparent;stroke:black" /><text x="470" y="140" font-size="8" style="fill:black">name: keywords</text><text x="470" y="150" font-size="8" style="fill:black">content: pizzas, pizzeria, carta, conocenos</text><rect x="460" y="170" width="200" height="40" style="fill:white;stroke:black;stroke-width:1" /><text x="470" y="180" font-size="10" style="fill:blue">meta</text><path d="M440 40 C460 40 440 190 460 190" style="fill:transparent;stroke:black" /><text x="470" y="190" font-size="8" style="fill:black">name: description</text><text x="470" y="200" font-size="8" style="fill:black">content: Página principal de la pagina web dedicada a la venta de pizzas</text><rect x="460" y="220" width="200" height="40" style="fill:white;stroke:black;stroke-width:1" /><text x="470" y="230" font-size="10" style="fill:blue">link</text><path d="M440 40 C460 40 440 240 460 240" style="fill:transparent;stroke:black" /><text x="470" y="240" font-size="8" style="fill:black">rel: icon</text><text x="470" y="250" font-size="8" style="fill:black">href: ../img/iconoPizza.jpg</text><text x="470" y="260" font-size="8" style="fill:black">type: image/jpg</text><rect x="460" y="270" width="200" height="40" style="fill:white;stroke:black;stroke-width:1" /><text x="470" y="280" font-size="10" style="fill:blue">link</text><path d="M440 40 C460 40 440 290 460 290" style="fill:transparent;stroke:black" /><text x="470" y="290" font-size="8" style="fill:black">href: ../css/estilos.css</text><text x="470" y="300" font-size="8" style="fill:black">rel: stylesheet</text><text x="470" y="310" font-size="8" style="fill:black">type: text/css</text><rect x="460" y="320" width="200" height="40" style="fill:white;stroke:black;stroke-width:1" /><text x="470" y="330" font-size="10" style="fill:blue">script</text><path d="M440 40 C460 40 440 340 460 340" style="fill:transparent;stroke:black" /><text x="470" y="340" font-size="8" style="fill:black">src: http://ajax.googleapis.com/ajax/libs/jquery/3.2.1/jquery.min.js</text><rect x="460" y="370" width="200" height="40" style="fill:white;stroke:black;stroke-width:1" /><text x="470" y="380" font-size="10" style="fill:blue">script</text><path d="M440 40 C460 40 440 390 460 390" style="fill:transparent;stroke:black" /><text x="470" y="390" font-size="8" style="fill:black">src: ../js/reloj.js</text><rect x="460" y="420" width="200" height="40" style="fill:white;stroke:black;stroke-width:1" /><text x="470" y="430" font-size="10" style="fill:blue">link</text><path d="M440 40 C460 40 440 440 460 440" style="fill:transparent;stroke:black" /><text x="470" y="440" font-size="8" style="fill:black">href: ../css/reloj.css</text><text x="470" y="450" font-size="8" style="fill:black">rel: stylesheet</text><text x="470" y="460" font-size="8" style="fill:black">type: text/css</text><rect x="460" y="470" width="200" height="40" style="fill:white;stroke:black;stroke-width:1" /><text x="470" y="480" font-size="10" style="fill:blue">link</text><path d="M440 40 C460 40 440 490 460 490" style="fill:transparent;stroke:black" /><text x="470" y="490" font-size="8" style="fill:black">href: ../css/navBar.css</text><text x="470" y="500" font-size="8" style="fill:black">rel: stylesheet</text><text x="470" y="510" font-size="8" style="fill:black">type: text/css</text><rect x="460" y="520" width="200" height="40" style="fill:white;stroke:black;stroke-width:1" /><text x="470" y="530" font-size="10" style="fill:blue">link</text><path d="M440 40 C460 40 440 540 460 540" style="fill:transparent;stroke:black" /><text x="470" y="540" font-size="8" style="fill:black">href: ../css/estilos.css</text><text x="470" y="550" font-size="8" style="fill:black">rel: stylesheet</text><text x="470" y="560" font-size="8" style="fill:black">type: text/css</text><rect x="460" y="570" width="200" height="40" style="fill:white;stroke:black;stroke-width:1" /><text x="470" y="580" font-size="10" style="fill:blue">title</text><path d="M440 40 C460 40 440 590 460 590" style="fill:transparent;stroke:black" /><rect x="526" y="570" width="137" height="40" style="fill:green;stroke:black;stroke-width:1" /><text x="536" y="580" font-size="8" style="fill:white">Pizzería EII</text><rect x="240" y="670" width="200" height="40" style="fill:white;stroke:black;stroke-width:1" /><text x="250" y="680" font-size="10" style="fill:blue">body</text><path d="M220 40 C240 40 220 690 240 690" style="fill:transparent;stroke:black" /><rect x="460" y="670" width="200" height="40" style="fill:white;stroke:black;stroke-width:1" /><text x="470" y="680" font-size="10" style="fill:blue">div</text><path d="M440 690 C460 690 440 690 460 690" style="fill:transparent;stroke:black" /><text x="470" y="690" font-size="8" style="fill:black">id: clockDate</text><rect x="680" y="670" width="200" height="40" style="fill:white;stroke:black;stroke-width:1" /><text x="690" y="680" font-size="10" style="fill:blue">p</text><path d="M660 690 C680 690 660 690 680 690" style="fill:transparent;stroke:black" /><text x="690" y="690" font-size="8" style="fill:black">id: date</text><rect x="680" y="720" width="200" height="40" style="fill:white;stroke:black;stroke-width:1" /><text x="690" y="730" font-size="10" style="fill:blue">ul</text><path d="M660 690 C680 690 660 740 680 740" style="fill:transparent;stroke:black" /><text x="690" y="740" font-size="8" style="fill:black">id: clock</text><rect x="900" y="720" width="200" height="40" style="fill:white;stroke:black;stroke-width:1" /><text x="910" y="730" font-size="10" style="fill:blue">li</text><path d="M880 740 C900 740 880 740 900 740" style="fill:transparent;stroke:black" /><text x="910" y="740" font-size="8" style="fill:black">id: hours</text><rect x="900" y="770" width="200" height="40" style="fill:white;stroke:black;stroke-width:1" /><text x="910" y="780" font-size="10" style="fill:blue">li</text><path d="M880 740 C900 740 880 790 900 790" style="fill:transparent;stroke:black" /><text x="910" y="790" font-size="8" style="fill:black">class: dot</text><rect x="966" y="770" width="137" height="40" style="fill:green;stroke:black;stroke-width:1" /><text x="976" y="780" font-size="8" style="fill:white">:</text><rect x="900" y="820" width="200" height="40" style="fill:white;stroke:black;stroke-width:1" /><text x="910" y="830" font-size="10" style="fill:blue">li</text><path d="M880 740 C900 740 880 840 900 840" style="fill:transparent;stroke:black" /><text x="910" y="840" font-size="8" style="fill:black">id: minutes</text><rect x="900" y="870" width="200" height="40" style="fill:white;stroke:black;stroke-width:1" /><text x="910" y="880" font-size="10" style="fill:blue">li</text><path d="M880 740 C900 740 880 890 900 890" style="fill:transparent;stroke:black" /><text x="910" y="890" font-size="8" style="fill:black">class: dot</text><rect x="966" y="870" width="137" height="40" style="fill:green;stroke:black;stroke-width:1" /><text x="976" y="880" font-size="8" style="fill:white">:</text><rect x="900" y="920" width="200" height="40" style="fill:white;stroke:black;stroke-width:1" /><text x="910" y="930" font-size="10" style="fill:blue">li</text><path d="M880 740 C900 740 880 940 900 940" style="fill:transparent;stroke:black" /><text x="910" y="940" font-size="8" style="fill:black">id: seconds</text><rect x="460" y="1070" width="200" height="40" style="fill:white;stroke:black;stroke-width:1" /><text x="470" y="1080" font-size="10" style="fill:blue">header</text><path d="M440 690 C460 690 440 1090 460 1090" style="fill:transparent;stroke:black" /><rect x="680" y="1070" width="200" height="40" style="fill:white;stroke:black;stroke-width:1" /><text x="690" y="1080" font-size="10" style="fill:blue">a</text><path d="M660 1090 C680 1090 660 1090 680 1090" style="fill:transparent;stroke:black" /><text x="690" y="1090" font-size="8" style="fill:black">href: ../index.html</text><text x="690" y="1100" font-size="8" style="fill:black">title: Ir a la página principal</text><rect x="900" y="1070" width="200" height="40" style="fill:white;stroke:black;stroke-width:1" /><text x="910" y="1080" font-size="10" style="fill:blue">img</text><path d="M880 1090 C900 1090 880 1090 900 1090" style="fill:transparent;stroke:black" /><text x="910" y="1090" font-size="8" style="fill:black">src: ../img/PizzeriaEII.png</text><text x="910" y="1100" font-size="8" style="fill:black">alt: Pizzeria EII</text><rect x="460" y="1220" width="200" height="40" style="fill:white;stroke:black;stroke-width:1" /><text x="470" y="1230" font-size="10" style="fill:blue">nav</text><path d="M440 690 C460 690 440 1240 460 1240" style="fill:transparent;stroke:black" /><rect x="680" y="1220" width="200" height="40" style="fill:white;stroke:black;stroke-width:1" /><text x="690" y="1230" font-size="10" style="fill:blue">ul</text><path d="M660 1240 C680 1240 660 1240 680 1240" style="fill:transparent;stroke:black" /><text x="690" y="1240" font-size="8" style="fill:black">id: lista_menu</text><rect x="900" y="1220" width="200" height="40" style="fill:white;stroke:black;stroke-width:1" /><text x="910" y="1230" font-size="10" style="fill:blue">li</text><path d="M880 1240 C900 1240 880 1240 900 1240" style="fill:transparent;stroke:black" /><rect x="1120" y="1220" width="200" height="40" style="fill:white;stroke:black;stroke-width:1" /><text x="1130" y="1230" font-size="10" style="fill:blue">a</text><path d="M1100 1240 C1120 1240 1100 1240 1120 1240" style="fill:transparent;stroke:black" /><text x="1130" y="1240" font-size="8" style="fill:black">href: ../index.html</text><rect x="1186" y="1220" width="137" height="40" style="fill:green;stroke:black;stroke-width:1" /><text x="1196" y="1230" font-size="8" style="fill:white">Principal</text><rect x="900" y="1320" width="200" height="40" style="fill:white;stroke:black;stroke-width:1" /><text x="910" y="1330" font-size="10" style="fill:blue">li</text><path d="M880 1240 C900 1240 880 1340 900 1340" style="fill:transparent;stroke:black" /><rect x="1120" y="1320" width="200" height="40" style="fill:white;stroke:black;stroke-width:1" /><text x="1130" y="1330" font-size="10" style="fill:blue">a</text><path d="M1100 1340 C1120 1340 1100 1340 1120 1340" style="fill:transparent;stroke:black" /><text x="1130" y="1340" font-size="8" style="fill:black">href: conocenos.html</text><rect x="1186" y="1320" width="137" height="40" style="fill:green;stroke:black;stroke-width:1" /><text x="1196" y="1330" font-size="8" style="fill:white">Conócenos</text><rect x="900" y="1420" width="200" height="40" style="fill:white;stroke:black;stroke-width:1" /><text x="910" y="1430" font-size="10" style="fill:blue">li</text><path d="M880 1240 C900 1240 880 1440 900 1440" style="fill:transparent;stroke:black" /><rect x="1120" y="1420" width="200" height="40" style="fill:white;stroke:black;stroke-width:1" /><text x="1130" y="1430" font-size="10" style="fill:blue">a</text><path d="M1100 1440 C1120 1440 1100 1440 1120 1440" style="fill:transparent;stroke:black" /><text x="1130" y="1440" font-size="8" style="fill:black">href: productos.html</text><rect x="1186" y="1420" width="137" height="40" style="fill:green;stroke:black;stroke-width:1" /><text x="1196" y="1430" font-size="8" style="fill:white">Productos</text><rect x="1120" y="1470" width="200" height="40" style="fill:white;stroke:black;stroke-width:1" /><text x="1130" y="1480" font-size="10" style="fill:blue">ul</text><path d="M1100 1440 C1120 1440 1100 1490 1120 1490" style="fill:transparent;stroke:black" /><rect x="1340" y="1470" width="200" height="40" style="fill:white;stroke:black;stroke-width:1" /><text x="1350" y="1480" font-size="10" style="fill:blue">li</text><path d="M1320 1490 C1340 1490 1320 1490 1340 1490" style="fill:transparent;stroke:black" /><rect x="1560" y="1470" width="200" height="40" style="fill:white;stroke:black;stroke-width:1" /><text x="1570" y="1480" font-size="10" style="fill:blue">a</text><path d="M1540 1490 C1560 1490 1540 1490 1560 1490" style="fill:transparent;stroke:black" /><text x="1570" y="1490" font-size="8" style="fill:black">href: ../xml/pizzas.xml</text><rect x="1626" y="1470" width="137" height="40" style="fill:green;stroke:black;stroke-width:1" /><text x="1636" y="1480" font-size="8" style="fill:white">Pizzas</text><rect x="1340" y="1570" width="200" height="40" style="fill:white;stroke:black;stroke-width:1" /><text x="1350" y="1580" font-size="10" style="fill:blue">li</text><path d="M1320 1490 C1340 1490 1320 1590 1340 1590" style="fill:transparent;stroke:black" /><rect x="1560" y="1570" width="200" height="40" style="fill:white;stroke:black;stroke-width:1" /><text x="1570" y="1580" font-size="10" style="fill:blue">a</text><path d="M1540 1590 C1560 1590 1540 1590 1560 1590" style="fill:transparent;stroke:black" /><text x="1570" y="1590" font-size="8" style="fill:black">href: ../xml/pizzasEspeciales.xml</text><rect x="1626" y="1570" width="137" height="40" style="fill:green;stroke:black;stroke-width:1" /><text x="1636" y="1580" font-size="8" style="fill:white">Pizzas Especiales</text><rect x="900" y="1770" width="200" height="40" style="fill:white;stroke:black;stroke-width:1" /><text x="910" y="1780" font-size="10" style="fill:blue">li</text><path d="M880 1240 C900 1240 880 1790 900 1790" style="fill:transparent;stroke:black" /><rect x="1120" y="1770" width="200" height="40" style="fill:white;stroke:black;stroke-width:1" /><text x="1130" y="1780" font-size="10" style="fill:blue">a</text><path d="M1100 1790 C1120 1790 1100 1790 1120 1790" style="fill:transparent;stroke:black" /><text x="1130" y="1790" font-size="8" style="fill:black">href: contacto.html</text><rect x="1186" y="1770" width="137" height="40" style="fill:green;stroke:black;stroke-width:1" /><text x="1196" y="1780" font-size="8" style="fill:white">Contacto</text><rect x="900" y="1870" width="200" height="40" style="fill:white;stroke:black;stroke-width:1" /><text x="910" y="1880" font-size="10" style="fill:blue">li</text><path d="M880 1240 C900 1240 880 1890 900 1890" style="fill:transparent;stroke:black" /><rect x="1120" y="1870" width="200" height="40" style="fill:white;stroke:black;stroke-width:1" /><text x="1130" y="1880" font-size="10" style="fill:blue">a</text><path d="M1100 1890 C1120 1890 1100 1890 1120 1890" style="fill:transparent;stroke:black" /><text x="1130" y="1890" font-size="8" style="fill:black">href: locales.html</text><rect x="1186" y="1870" width="137" height="40" style="fill:green;stroke:black;stroke-width:1" /><text x="1196" y="1880" font-size="8" style="fill:white">Locales</text><rect x="460" y="2070" width="200" height="40" style="fill:white;stroke:black;stroke-width:1" /><text x="470" y="2080" font-size="10" style="fill:blue">main</text><path d="M440 690 C460 690 440 2090 460 2090" style="fill:transparent;stroke:black" /><rect x="460" y="2120" width="200" height="40" style="fill:white;stroke:black;stroke-width:1" /><text x="470" y="2130" font-size="10" style="fill:blue">footer</text><path d="M440 690 C460 690 440 2140 460 2140" style="fill:transparent;stroke:black" /><rect x="680" y="2120" width="200" height="40" style="fill:white;stroke:black;stroke-width:1" /><text x="690" y="2130" font-size="10" style="fill:blue">div</text><path d="M660 2140 C680 2140 660 2140 680 2140" style="fill:transparent;stroke:black" /><text x="690" y="2140" font-size="8" style="fill:black">id: copy</text><rect x="900" y="2120" width="200" height="40" style="fill:white;stroke:black;stroke-width:1" /><text x="910" y="2130" font-size="10" style="fill:blue">span</text><path d="M880 2140 C900 2140 880 2140 900 2140" style="fill:transparent;stroke:black" /><text x="910" y="2140" font-size="8" style="fill:black">class: copy</text><rect x="966" y="2120" width="137" height="40" style="fill:green;stroke:black;stroke-width:1" /><text x="976" y="2130" font-size="8" style="fill:white"> Copyright 2018 - Pizzería EII -  Derechos reservados
        </text><rect x="900" y="2170" width="200" height="40" style="fill:white;stroke:black;stroke-width:1" /><text x="910" y="2180" font-size="10" style="fill:blue">span</text><path d="M880 2140 C900 2140 880 2190 900 2190" style="fill:transparent;stroke:black" /><text x="910" y="2190" font-size="8" style="fill:black">class: contacto_footer</text><rect x="966" y="2170" width="137" height="40" style="fill:green;stroke:black;stroke-width:1" /><text x="976" y="2180" font-size="8" style="fill:white">
                Pagina web hecha por:
                </text><rect x="1120" y="2170" width="200" height="40" style="fill:white;stroke:black;stroke-width:1" /><text x="1130" y="2180" font-size="10" style="fill:blue">a</text><path d="M1100 2190 C1120 2190 1100 2190 1120 2190" style="fill:transparent;stroke:black" /><text x="1130" y="2190" font-size="8" style="fill:black">href: mailto:uo236974@uniovi.es</text><rect x="1186" y="2170" width="137" height="40" style="fill:green;stroke:black;stroke-width:1" /><text x="1196" y="2180" font-size="8" style="fill:white">Martín Peláez Díaz</text><rect x="680" y="2320" width="200" height="40" style="fill:white;stroke:black;stroke-width:1" /><text x="690" y="2330" font-size="10" style="fill:blue">div</text><path d="M660 2140 C680 2140 660 2340 680 2340" style="fill:transparent;stroke:black" /><text x="690" y="2340" font-size="8" style="fill:black">class: mapa_web</text><rect x="900" y="2320" width="200" height="40" style="fill:white;stroke:black;stroke-width:1" /><text x="910" y="2330" font-size="10" style="fill:blue">h3</text><path d="M880 2340 C900 2340 880 2340 900 2340" style="fill:transparent;stroke:black" /><rect x="966" y="2320" width="137" height="40" style="fill:green;stroke:black;stroke-width:1" /><text x="976" y="2330" font-size="8" style="fill:white">Mapa web</text><rect x="900" y="2370" width="200" height="40" style="fill:white;stroke:black;stroke-width:1" /><text x="910" y="2380" font-size="10" style="fill:blue">ul</text><path d="M880 2340 C900 2340 880 2390 900 2390" style="fill:transparent;stroke:black" /><rect x="1120" y="2370" width="200" height="40" style="fill:white;stroke:black;stroke-width:1" /><text x="1130" y="2380" font-size="10" style="fill:blue">li</text><path d="M1100 2390 C1120 2390 1100 2390 1120 2390" style="fill:transparent;stroke:black" /><rect x="1340" y="2370" width="200" height="40" style="fill:white;stroke:black;stroke-width:1" /><text x="1350" y="2380" font-size="10" style="fill:blue">a</text><path d="M1320 2390 C1340 2390 1320 2390 1340 2390" style="fill:transparent;stroke:black" /><text x="1350" y="2390" font-size="8" style="fill:black">href: ../index.html</text><rect x="1406" y="2370" width="137" height="40" style="fill:green;stroke:black;stroke-width:1" /><text x="1416" y="2380" font-size="8" style="fill:white">Principal</text><rect x="1120" y="2470" width="200" height="40" style="fill:white;stroke:black;stroke-width:1" /><text x="1130" y="2480" font-size="10" style="fill:blue">li</text><path d="M1100 2390 C1120 2390 1100 2490 1120 2490" style="fill:transparent;stroke:black" /><rect x="1340" y="2470" width="200" height="40" style="fill:white;stroke:black;stroke-width:1" /><text x="1350" y="2480" font-size="10" style="fill:blue">a</text><path d="M1320 2490 C1340 2490 1320 2490 1340 2490" style="fill:transparent;stroke:black" /><text x="1350" y="2490" font-size="8" style="fill:black">href: conocenos.html</text><rect x="1406" y="2470" width="137" height="40" style="fill:green;stroke:black;stroke-width:1" /><text x="1416" y="2480" font-size="8" style="fill:white">Conócenos</text><rect x="1120" y="2570" width="200" height="40" style="fill:white;stroke:black;stroke-width:1" /><text x="1130" y="2580" font-size="10" style="fill:blue">li</text><path d="M1100 2390 C1120 2390 1100 2590 1120 2590" style="fill:transparent;stroke:black" /><rect x="1340" y="2570" width="200" height="40" style="fill:white;stroke:black;stroke-width:1" /><text x="1350" y="2580" font-size="10" style="fill:blue">a</text><path d="M1320 2590 C1340 2590 1320 2590 1340 2590" style="fill:transparent;stroke:black" /><text x="1350" y="2590" font-size="8" style="fill:black">href: productos.html</text><rect x="1406" y="2570" width="137" height="40" style="fill:green;stroke:black;stroke-width:1" /><text x="1416" y="2580" font-size="8" style="fill:white">Productos</text><rect x="1120" y="2670" width="200" height="40" style="fill:white;stroke:black;stroke-width:1" /><text x="1130" y="2680" font-size="10" style="fill:blue">li</text><path d="M1100 2390 C1120 2390 1100 2690 1120 2690" style="fill:transparent;stroke:black" /><rect x="1340" y="2670" width="200" height="40" style="fill:white;stroke:black;stroke-width:1" /><text x="1350" y="2680" font-size="10" style="fill:blue">a</text><path d="M1320 2690 C1340 2690 1320 2690 1340 2690" style="fill:transparent;stroke:black" /><text x="1350" y="2690" font-size="8" style="fill:black">href: contacto.html</text><rect x="1406" y="2670" width="137" height="40" style="fill:green;stroke:black;stroke-width:1" /><text x="1416" y="2680" font-size="8" style="fill:white">Contacto</text><rect x="1120" y="2770" width="200" height="40" style="fill:white;stroke:black;stroke-width:1" /><text x="1130" y="2780" font-size="10" style="fill:blue">li</text><path d="M1100 2390 C1120 2390 1100 2790 1120 2790" style="fill:transparent;stroke:black" /><rect x="1340" y="2770" width="200" height="40" style="fill:white;stroke:black;stroke-width:1" /><text x="1350" y="2780" font-size="10" style="fill:blue">a</text><path d="M1320 2790 C1340 2790 1320 2790 1340 2790" style="fill:transparent;stroke:black" /><text x="1350" y="2790" font-size="8" style="fill:black">href: locales.html</text><rect x="1406" y="2770" width="137" height="40" style="fill:green;stroke:black;stroke-width:1" /><text x="1416" y="2780" font-size="8" style="fill:white">Locales</text><rect x="680" y="2970" width="200" height="40" style="fill:white;stroke:black;stroke-width:1" /><text x="690" y="2980" font-size="10" style="fill:blue">div</text><path d="M660 2140 C680 2140 660 2990 680 2990" style="fill:transparent;stroke:black" /><text x="690" y="2990" font-size="8" style="fill:black">class: accesibilidad</text><rect x="900" y="2970" width="200" height="40" style="fill:white;stroke:black;stroke-width:1" /><text x="910" y="2980" font-size="10" style="fill:blue">h3</text><path d="M880 2990 C900 2990 880 2990 900 2990" style="fill:transparent;stroke:black" /><rect x="966" y="2970" width="137" height="40" style="fill:green;stroke:black;stroke-width:1" /><text x="976" y="2980" font-size="8" style="fill:white">Sobre la accesibilidad</text><rect x="900" y="3020" width="200" height="40" style="fill:white;stroke:black;stroke-width:1" /><text x="910" y="3030" font-size="10" style="fill:blue">p</text><path d="M880 2990 C900 2990 880 3040 900 3040" style="fill:transparent;stroke:black" /><rect x="966" y="3020" width="137" height="40" style="fill:green;stroke:black;stroke-width:1" /><text x="976" y="3030" font-size="8" style="fill:white">Web optimizada para su uso en los siguientes navegadores:</text><rect x="1120" y="3020" width="200" height="40" style="fill:white;stroke:black;stroke-width:1" /><text x="1130" y="3030" font-size="10" style="fill:blue">br</text><path d="M1100 3040 C1120 3040 1100 3040 1120 3040" style="fill:transparent;stroke:black" /><rect x="966" y="3070" width="137" height="40" style="fill:green;stroke:black;stroke-width:1" /><text x="976" y="3080" font-size="8" style="fill:white">
            Internet Explorer 8, Firefox 2.0 o superior, Safari, Ópera y Chrome.</text><rect x="1120" y="3070" width="200" height="40" style="fill:white;stroke:black;stroke-width:1" /><text x="1130" y="3080" font-size="10" style="fill:blue">br</text><path d="M1100 3040 C1120 3040 1100 3090 1120 3090" style="fill:transparent;stroke:black" /><rect x="966" y="3120" width="137" height="40" style="fill:green;stroke:black;stroke-width:1" /><text x="976" y="3130" font-size="8" style="fill:white">
            Sitio web creado con CSS &amp; HTML válidos. • Accesibilidad AAA.</text><rect x="680" y="3220" width="200" height="40" style="fill:white;stroke:black;stroke-width:1" /><text x="690" y="3230" font-size="10" style="fill:blue">div</text><path d="M660 2140 C680 2140 660 3240 680 3240" style="fill:transparent;stroke:black" /><text x="690" y="3240" font-size="8" style="fill:black">class: clear</text><rect x="460" y="3320" width="200" height="40" style="fill:white;stroke:black;stroke-width:1" /><text x="470" y="3330" font-size="10" style="fill:blue">script</text><path d="M440 690 C460 690 440 3340 460 3340" style="fill:transparent;stroke:black" /><text x="470" y="3340" font-size="8" style="fill:black">src: ../js/mapa.js</text><rect x="460" y="3370" width="200" height="40" style="fill:white;stroke:black;stroke-width:1" /><text x="470" y="3380" font-size="10" style="fill:blue">script</text><path d="M440 690 C460 690 440 3390 460 3390" style="fill:transparent;stroke:black" /><text x="470" y="3390" font-size="8" style="fill:black">async: async</text><text x="470" y="3400" font-size="8" style="fill:black">defer: defer</text><text x="470" y="3410" font-size="8" style="fill:black">src: https://maps.googleapis.com/maps/api/js?key=AIzaSyAz8bcl1V11zR9SPmGhFtiA0oHgalrE60g&amp;callback=mapa.mostrar</text></svg>