<?xml version="1.0" encoding="utf-8"?><svg width="auto" height="3570" style="overflow:visible " version="1.1" xmlns="http://www.w3.org/2000/svg"><rect x="20" y="20" width="200" height="40" style="fill:white;stroke:black;stroke-width:1" /><text x="30" y="30" font-size="10" style="fill:blue">html</text><text x="30" y="40" font-size="8" style="fill:black">lang: es</text><rect x="240" y="20" width="200" height="40" style="fill:white;stroke:black;stroke-width:1" /><text x="250" y="30" font-size="10" style="fill:blue">head</text><path d="M220 40 C240 40 220 40 240 40" style="fill:transparent;stroke:black" /><rect x="460" y="20" width="200" height="40" style="fill:white;stroke:black;stroke-width:1" /><text x="470" y="30" font-size="10" style="fill:blue">meta</text><path d="M440 40 C460 40 440 40 460 40" style="fill:transparent;stroke:black" /><text x="470" y="40" font-size="8" style="fill:black">charset: UTF-8</text><rect x="460" y="70" width="200" height="40" style="fill:white;stroke:black;stroke-width:1" /><text x="470" y="80" font-size="10" style="fill:blue">meta</text><path d="M440 40 C460 40 440 90 460 90" style="fill:transparent;stroke:black" /><text x="470" y="90" font-size="8" style="fill:black">name: description</text><text x="470" y="100" font-size="8" style="fill:black">content: Página principal de la pagina web dedicada a la venta de pizzas</text><rect x="460" y="120" width="200" height="40" style="fill:white;stroke:black;stroke-width:1" /><text x="470" y="130" font-size="10" style="fill:blue">meta</text><path d="M440 40 C460 40 440 140 460 140" style="fill:transparent;stroke:black" /><text x="470" y="140" font-size="8" style="fill:black">name: keywords</text><text x="470" y="150" font-size="8" style="fill:black">content: pizzas, pizzeria, carta, conocenos</text><rect x="460" y="170" width="200" height="40" style="fill:white;stroke:black;stroke-width:1" /><text x="470" y="180" font-size="10" style="fill:blue">link</text><path d="M440 40 C460 40 440 190 460 190" style="fill:transparent;stroke:black" /><text x="470" y="190" font-size="8" style="fill:black">rel: icon</text><text x="470" y="200" font-size="8" style="fill:black">href: ../img/iconoPizza.jpg</text><text x="470" y="210" font-size="8" style="fill:black">type: image/jpg</text><rect x="460" y="220" width="200" height="40" style="fill:white;stroke:black;stroke-width:1" /><text x="470" y="230" font-size="10" style="fill:blue">script</text><path d="M440 40 C460 40 440 240 460 240" style="fill:transparent;stroke:black" /><text x="470" y="240" font-size="8" style="fill:black">src: https://ajax.googleapis.com/ajax/libs/jquery/3.3.1/jquery.min.js</text><rect x="460" y="270" width="200" height="40" style="fill:white;stroke:black;stroke-width:1" /><text x="470" y="280" font-size="10" style="fill:blue">script</text><path d="M440 40 C460 40 440 290 460 290" style="fill:transparent;stroke:black" /><text x="470" y="290" font-size="8" style="fill:black">src: ../js/reloj.js</text><rect x="460" y="320" width="200" height="40" style="fill:white;stroke:black;stroke-width:1" /><text x="470" y="330" font-size="10" style="fill:blue">link</text><path d="M440 40 C460 40 440 340 460 340" style="fill:transparent;stroke:black" /><text x="470" y="340" font-size="8" style="fill:black">href: ../css/estilos.css</text><text x="470" y="350" font-size="8" style="fill:black">rel: stylesheet</text><text x="470" y="360" font-size="8" style="fill:black">type: text/css</text><rect x="460" y="370" width="200" height="40" style="fill:white;stroke:black;stroke-width:1" /><text x="470" y="380" font-size="10" style="fill:blue">link</text><path d="M440 40 C460 40 440 390 460 390" style="fill:transparent;stroke:black" /><text x="470" y="390" font-size="8" style="fill:black">href: ../css/reloj.css</text><text x="470" y="400" font-size="8" style="fill:black">rel: stylesheet</text><text x="470" y="410" font-size="8" style="fill:black">type: text/css</text><rect x="460" y="420" width="200" height="40" style="fill:white;stroke:black;stroke-width:1" /><text x="470" y="430" font-size="10" style="fill:blue">link</text><path d="M440 40 C460 40 440 440 460 440" style="fill:transparent;stroke:black" /><text x="470" y="440" font-size="8" style="fill:black">href: ../css/navBar.css</text><text x="470" y="450" font-size="8" style="fill:black">rel: stylesheet</text><text x="470" y="460" font-size="8" style="fill:black">type: text/css</text><rect x="460" y="470" width="200" height="40" style="fill:white;stroke:black;stroke-width:1" /><text x="470" y="480" font-size="10" style="fill:blue">title</text><path d="M440 40 C460 40 440 490 460 490" style="fill:transparent;stroke:black" /><rect x="526" y="470" width="137" height="40" style="fill:green;stroke:black;stroke-width:1" /><text x="536" y="480" font-size="8" style="fill:white">Pizzería EII</text><rect x="240" y="570" width="200" height="40" style="fill:white;stroke:black;stroke-width:1" /><text x="250" y="580" font-size="10" style="fill:blue">body</text><path d="M220 40 C240 40 220 590 240 590" style="fill:transparent;stroke:black" /><rect x="460" y="570" width="200" height="40" style="fill:white;stroke:black;stroke-width:1" /><text x="470" y="580" font-size="10" style="fill:blue">div</text><path d="M440 590 C460 590 440 590 460 590" style="fill:transparent;stroke:black" /><text x="470" y="590" font-size="8" style="fill:black">id: clockDate</text><rect x="680" y="570" width="200" height="40" style="fill:white;stroke:black;stroke-width:1" /><text x="690" y="580" font-size="10" style="fill:blue">p</text><path d="M660 590 C680 590 660 590 680 590" style="fill:transparent;stroke:black" /><text x="690" y="590" font-size="8" style="fill:black">id: date</text><rect x="680" y="620" width="200" height="40" style="fill:white;stroke:black;stroke-width:1" /><text x="690" y="630" font-size="10" style="fill:blue">ul</text><path d="M660 590 C680 590 660 640 680 640" style="fill:transparent;stroke:black" /><text x="690" y="640" font-size="8" style="fill:black">id: clock</text><rect x="900" y="620" width="200" height="40" style="fill:white;stroke:black;stroke-width:1" /><text x="910" y="630" font-size="10" style="fill:blue">li</text><path d="M880 640 C900 640 880 640 900 640" style="fill:transparent;stroke:black" /><text x="910" y="640" font-size="8" style="fill:black">id: hours</text><rect x="900" y="670" width="200" height="40" style="fill:white;stroke:black;stroke-width:1" /><text x="910" y="680" font-size="10" style="fill:blue">li</text><path d="M880 640 C900 640 880 690 900 690" style="fill:transparent;stroke:black" /><text x="910" y="690" font-size="8" style="fill:black">class: dot</text><rect x="966" y="670" width="137" height="40" style="fill:green;stroke:black;stroke-width:1" /><text x="976" y="680" font-size="8" style="fill:white">:</text><rect x="900" y="720" width="200" height="40" style="fill:white;stroke:black;stroke-width:1" /><text x="910" y="730" font-size="10" style="fill:blue">li</text><path d="M880 640 C900 640 880 740 900 740" style="fill:transparent;stroke:black" /><text x="910" y="740" font-size="8" style="fill:black">id: minutes</text><rect x="900" y="770" width="200" height="40" style="fill:white;stroke:black;stroke-width:1" /><text x="910" y="780" font-size="10" style="fill:blue">li</text><path d="M880 640 C900 640 880 790 900 790" style="fill:transparent;stroke:black" /><text x="910" y="790" font-size="8" style="fill:black">class: dot</text><rect x="966" y="770" width="137" height="40" style="fill:green;stroke:black;stroke-width:1" /><text x="976" y="780" font-size="8" style="fill:white">:</text><rect x="900" y="820" width="200" height="40" style="fill:white;stroke:black;stroke-width:1" /><text x="910" y="830" font-size="10" style="fill:blue">li</text><path d="M880 640 C900 640 880 840 900 840" style="fill:transparent;stroke:black" /><text x="910" y="840" font-size="8" style="fill:black">id: seconds</text><rect x="460" y="970" width="200" height="40" style="fill:white;stroke:black;stroke-width:1" /><text x="470" y="980" font-size="10" style="fill:blue">header</text><path d="M440 590 C460 590 440 990 460 990" style="fill:transparent;stroke:black" /><rect x="680" y="970" width="200" height="40" style="fill:white;stroke:black;stroke-width:1" /><text x="690" y="980" font-size="10" style="fill:blue">a</text><path d="M660 990 C680 990 660 990 680 990" style="fill:transparent;stroke:black" /><text x="690" y="990" font-size="8" style="fill:black">href: ../index.html</text><text x="690" y="1000" font-size="8" style="fill:black">title: Ir a la página principal</text><rect x="900" y="970" width="200" height="40" style="fill:white;stroke:black;stroke-width:1" /><text x="910" y="980" font-size="10" style="fill:blue">img</text><path d="M880 990 C900 990 880 990 900 990" style="fill:transparent;stroke:black" /><text x="910" y="990" font-size="8" style="fill:black">src: ../img/PizzeriaEII.png</text><text x="910" y="1000" font-size="8" style="fill:black">alt: Pizzeria EII</text><rect x="460" y="1120" width="200" height="40" style="fill:white;stroke:black;stroke-width:1" /><text x="470" y="1130" font-size="10" style="fill:blue">nav</text><path d="M440 590 C460 590 440 1140 460 1140" style="fill:transparent;stroke:black" /><rect x="680" y="1120" width="200" height="40" style="fill:white;stroke:black;stroke-width:1" /><text x="690" y="1130" font-size="10" style="fill:blue">ul</text><path d="M660 1140 C680 1140 660 1140 680 1140" style="fill:transparent;stroke:black" /><text x="690" y="1140" font-size="8" style="fill:black">id: lista_menu</text><rect x="900" y="1120" width="200" height="40" style="fill:white;stroke:black;stroke-width:1" /><text x="910" y="1130" font-size="10" style="fill:blue">li</text><path d="M880 1140 C900 1140 880 1140 900 1140" style="fill:transparent;stroke:black" /><rect x="1120" y="1120" width="200" height="40" style="fill:white;stroke:black;stroke-width:1" /><text x="1130" y="1130" font-size="10" style="fill:blue">a</text><path d="M1100 1140 C1120 1140 1100 1140 1120 1140" style="fill:transparent;stroke:black" /><text x="1130" y="1140" font-size="8" style="fill:black">href: ../index.html</text><rect x="1186" y="1120" width="137" height="40" style="fill:green;stroke:black;stroke-width:1" /><text x="1196" y="1130" font-size="8" style="fill:white">Principal</text><rect x="900" y="1220" width="200" height="40" style="fill:white;stroke:black;stroke-width:1" /><text x="910" y="1230" font-size="10" style="fill:blue">li</text><path d="M880 1140 C900 1140 880 1240 900 1240" style="fill:transparent;stroke:black" /><rect x="1120" y="1220" width="200" height="40" style="fill:white;stroke:black;stroke-width:1" /><text x="1130" y="1230" font-size="10" style="fill:blue">a</text><path d="M1100 1240 C1120 1240 1100 1240 1120 1240" style="fill:transparent;stroke:black" /><text x="1130" y="1240" font-size="8" style="fill:black">href: conocenos.html</text><rect x="1186" y="1220" width="137" height="40" style="fill:green;stroke:black;stroke-width:1" /><text x="1196" y="1230" font-size="8" style="fill:white">Conócenos</text><rect x="900" y="1320" width="200" height="40" style="fill:white;stroke:black;stroke-width:1" /><text x="910" y="1330" font-size="10" style="fill:blue">li</text><path d="M880 1140 C900 1140 880 1340 900 1340" style="fill:transparent;stroke:black" /><rect x="1120" y="1320" width="200" height="40" style="fill:white;stroke:black;stroke-width:1" /><text x="1130" y="1330" font-size="10" style="fill:blue">a</text><path d="M1100 1340 C1120 1340 1100 1340 1120 1340" style="fill:transparent;stroke:black" /><text x="1130" y="1340" font-size="8" style="fill:black">href: productos.html</text><rect x="1186" y="1320" width="137" height="40" style="fill:green;stroke:black;stroke-width:1" /><text x="1196" y="1330" font-size="8" style="fill:white">Productos</text><rect x="1120" y="1370" width="200" height="40" style="fill:white;stroke:black;stroke-width:1" /><text x="1130" y="1380" font-size="10" style="fill:blue">ul</text><path d="M1100 1340 C1120 1340 1100 1390 1120 1390" style="fill:transparent;stroke:black" /><rect x="1340" y="1370" width="200" height="40" style="fill:white;stroke:black;stroke-width:1" /><text x="1350" y="1380" font-size="10" style="fill:blue">li</text><path d="M1320 1390 C1340 1390 1320 1390 1340 1390" style="fill:transparent;stroke:black" /><rect x="1560" y="1370" width="200" height="40" style="fill:white;stroke:black;stroke-width:1" /><text x="1570" y="1380" font-size="10" style="fill:blue">a</text><path d="M1540 1390 C1560 1390 1540 1390 1560 1390" style="fill:transparent;stroke:black" /><text x="1570" y="1390" font-size="8" style="fill:black">href: ../xml/pizzas.xml</text><rect x="1626" y="1370" width="137" height="40" style="fill:green;stroke:black;stroke-width:1" /><text x="1636" y="1380" font-size="8" style="fill:white">Pizzas</text><rect x="1340" y="1470" width="200" height="40" style="fill:white;stroke:black;stroke-width:1" /><text x="1350" y="1480" font-size="10" style="fill:blue">li</text><path d="M1320 1390 C1340 1390 1320 1490 1340 1490" style="fill:transparent;stroke:black" /><rect x="1560" y="1470" width="200" height="40" style="fill:white;stroke:black;stroke-width:1" /><text x="1570" y="1480" font-size="10" style="fill:blue">a</text><path d="M1540 1490 C1560 1490 1540 1490 1560 1490" style="fill:transparent;stroke:black" /><text x="1570" y="1490" font-size="8" style="fill:black">href: ../xml/pizzasEspeciales.xml</text><rect x="1626" y="1470" width="137" height="40" style="fill:green;stroke:black;stroke-width:1" /><text x="1636" y="1480" font-size="8" style="fill:white">Pizzas Especiales</text><rect x="900" y="1670" width="200" height="40" style="fill:white;stroke:black;stroke-width:1" /><text x="910" y="1680" font-size="10" style="fill:blue">li</text><path d="M880 1140 C900 1140 880 1690 900 1690" style="fill:transparent;stroke:black" /><rect x="1120" y="1670" width="200" height="40" style="fill:white;stroke:black;stroke-width:1" /><text x="1130" y="1680" font-size="10" style="fill:blue">a</text><path d="M1100 1690 C1120 1690 1100 1690 1120 1690" style="fill:transparent;stroke:black" /><text x="1130" y="1690" font-size="8" style="fill:black">href: contacto.html</text><rect x="1186" y="1670" width="137" height="40" style="fill:green;stroke:black;stroke-width:1" /><text x="1196" y="1680" font-size="8" style="fill:white">Contacto</text><rect x="900" y="1770" width="200" height="40" style="fill:white;stroke:black;stroke-width:1" /><text x="910" y="1780" font-size="10" style="fill:blue">li</text><path d="M880 1140 C900 1140 880 1790 900 1790" style="fill:transparent;stroke:black" /><rect x="1120" y="1770" width="200" height="40" style="fill:white;stroke:black;stroke-width:1" /><text x="1130" y="1780" font-size="10" style="fill:blue">a</text><path d="M1100 1790 C1120 1790 1100 1790 1120 1790" style="fill:transparent;stroke:black" /><text x="1130" y="1790" font-size="8" style="fill:black">href: locales.html</text><rect x="1186" y="1770" width="137" height="40" style="fill:green;stroke:black;stroke-width:1" /><text x="1196" y="1780" font-size="8" style="fill:white">Locales</text><rect x="460" y="1970" width="200" height="40" style="fill:white;stroke:black;stroke-width:1" /><text x="470" y="1980" font-size="10" style="fill:blue">main</text><path d="M440 590 C460 590 440 1990 460 1990" style="fill:transparent;stroke:black" /><rect x="680" y="1970" width="200" height="40" style="fill:white;stroke:black;stroke-width:1" /><text x="690" y="1980" font-size="10" style="fill:blue">section</text><path d="M660 1990 C680 1990 660 1990 680 1990" style="fill:transparent;stroke:black" /><rect x="900" y="1970" width="200" height="40" style="fill:white;stroke:black;stroke-width:1" /><text x="910" y="1980" font-size="10" style="fill:blue">h2</text><path d="M880 1990 C900 1990 880 1990 900 1990" style="fill:transparent;stroke:black" /><rect x="966" y="1970" width="137" height="40" style="fill:green;stroke:black;stroke-width:1" /><text x="976" y="1980" font-size="8" style="fill:white">¡Accede a nuestra magnifica oferta de pizzas!</text><rect x="900" y="2020" width="200" height="40" style="fill:white;stroke:black;stroke-width:1" /><text x="910" y="2030" font-size="10" style="fill:blue">div</text><path d="M880 1990 C900 1990 880 2040 900 2040" style="fill:transparent;stroke:black" /><text x="910" y="2040" font-size="8" style="fill:black">id: botonesProductos</text><rect x="1120" y="2020" width="200" height="40" style="fill:white;stroke:black;stroke-width:1" /><text x="1130" y="2030" font-size="10" style="fill:blue">input</text><path d="M1100 2040 C1120 2040 1100 2040 1120 2040" style="fill:transparent;stroke:black" /><text x="1130" y="2040" font-size="8" style="fill:black">class: botonPizza</text><text x="1130" y="2050" font-size="8" style="fill:black">type: image</text><text x="1130" y="2060" font-size="8" style="fill:black">src: ../img/romana.jpg</text><text x="1130" y="2070" font-size="8" style="fill:black">onclick: location.href='../xml/pizzas.xml';</text><text x="1130" y="2080" font-size="8" style="fill:black">alt: Pizzas tradicionales</text><text x="1130" y="2090" font-size="8" style="fill:black">title: Pulse para ver nuestras pizzas tradicionales</text><rect x="1120" y="2070" width="200" height="40" style="fill:white;stroke:black;stroke-width:1" /><text x="1130" y="2080" font-size="10" style="fill:blue">input</text><path d="M1100 2040 C1120 2040 1100 2090 1120 2090" style="fill:transparent;stroke:black" /><text x="1130" y="2090" font-size="8" style="fill:black">class: botonPizza</text><text x="1130" y="2100" font-size="8" style="fill:black">type: image</text><text x="1130" y="2110" font-size="8" style="fill:black">src: ../img/tioJoroba.jpg</text><text x="1130" y="2120" font-size="8" style="fill:black">title: Pulse para ver nuestras pizzas especiales</text><text x="1130" y="2130" font-size="8" style="fill:black">onclick: location.href='../xml/pizzasEspeciales.xml';</text><text x="1130" y="2140" font-size="8" style="fill:black">alt: Pizzas especiales</text><rect x="460" y="2270" width="200" height="40" style="fill:white;stroke:black;stroke-width:1" /><text x="470" y="2280" font-size="10" style="fill:blue">footer</text><path d="M440 590 C460 590 440 2290 460 2290" style="fill:transparent;stroke:black" /><rect x="680" y="2270" width="200" height="40" style="fill:white;stroke:black;stroke-width:1" /><text x="690" y="2280" font-size="10" style="fill:blue">div</text><path d="M660 2290 C680 2290 660 2290 680 2290" style="fill:transparent;stroke:black" /><text x="690" y="2290" font-size="8" style="fill:black">id: copy</text><rect x="900" y="2270" width="200" height="40" style="fill:white;stroke:black;stroke-width:1" /><text x="910" y="2280" font-size="10" style="fill:blue">span</text><path d="M880 2290 C900 2290 880 2290 900 2290" style="fill:transparent;stroke:black" /><text x="910" y="2290" font-size="8" style="fill:black">class: copy</text><rect x="966" y="2270" width="137" height="40" style="fill:green;stroke:black;stroke-width:1" /><text x="976" y="2280" font-size="8" style="fill:white"> Copyright 2018 - Pizzería EII -  Derechos reservados
        </text><rect x="900" y="2320" width="200" height="40" style="fill:white;stroke:black;stroke-width:1" /><text x="910" y="2330" font-size="10" style="fill:blue">span</text><path d="M880 2290 C900 2290 880 2340 900 2340" style="fill:transparent;stroke:black" /><text x="910" y="2340" font-size="8" style="fill:black">class: contacto_footer</text><rect x="966" y="2320" width="137" height="40" style="fill:green;stroke:black;stroke-width:1" /><text x="976" y="2330" font-size="8" style="fill:white">
                Pagina web hecha por:
                </text><rect x="1120" y="2320" width="200" height="40" style="fill:white;stroke:black;stroke-width:1" /><text x="1130" y="2330" font-size="10" style="fill:blue">a</text><path d="M1100 2340 C1120 2340 1100 2340 1120 2340" style="fill:transparent;stroke:black" /><text x="1130" y="2340" font-size="8" style="fill:black">href: mailto:uo236974@uniovi.es</text><rect x="1186" y="2320" width="137" height="40" style="fill:green;stroke:black;stroke-width:1" /><text x="1196" y="2330" font-size="8" style="fill:white">Martín Peláez Díaz</text><rect x="680" y="2470" width="200" height="40" style="fill:white;stroke:black;stroke-width:1" /><text x="690" y="2480" font-size="10" style="fill:blue">div</text><path d="M660 2290 C680 2290 660 2490 680 2490" style="fill:transparent;stroke:black" /><text x="690" y="2490" font-size="8" style="fill:black">class: mapa_web</text><rect x="900" y="2470" width="200" height="40" style="fill:white;stroke:black;stroke-width:1" /><text x="910" y="2480" font-size="10" style="fill:blue">h3</text><path d="M880 2490 C900 2490 880 2490 900 2490" style="fill:transparent;stroke:black" /><rect x="966" y="2470" width="137" height="40" style="fill:green;stroke:black;stroke-width:1" /><text x="976" y="2480" font-size="8" style="fill:white">Mapa web</text><rect x="900" y="2520" width="200" height="40" style="fill:white;stroke:black;stroke-width:1" /><text x="910" y="2530" font-size="10" style="fill:blue">ul</text><path d="M880 2490 C900 2490 880 2540 900 2540" style="fill:transparent;stroke:black" /><rect x="1120" y="2520" width="200" height="40" style="fill:white;stroke:black;stroke-width:1" /><text x="1130" y="2530" font-size="10" style="fill:blue">li</text><path d="M1100 2540 C1120 2540 1100 2540 1120 2540" style="fill:transparent;stroke:black" /><rect x="1340" y="2520" width="200" height="40" style="fill:white;stroke:black;stroke-width:1" /><text x="1350" y="2530" font-size="10" style="fill:blue">a</text><path d="M1320 2540 C1340 2540 1320 2540 1340 2540" style="fill:transparent;stroke:black" /><text x="1350" y="2540" font-size="8" style="fill:black">href: ../index.html</text><rect x="1406" y="2520" width="137" height="40" style="fill:green;stroke:black;stroke-width:1" /><text x="1416" y="2530" font-size="8" style="fill:white">Principal</text><rect x="1120" y="2620" width="200" height="40" style="fill:white;stroke:black;stroke-width:1" /><text x="1130" y="2630" font-size="10" style="fill:blue">li</text><path d="M1100 2540 C1120 2540 1100 2640 1120 2640" style="fill:transparent;stroke:black" /><rect x="1340" y="2620" width="200" height="40" style="fill:white;stroke:black;stroke-width:1" /><text x="1350" y="2630" font-size="10" style="fill:blue">a</text><path d="M1320 2640 C1340 2640 1320 2640 1340 2640" style="fill:transparent;stroke:black" /><text x="1350" y="2640" font-size="8" style="fill:black">href: conocenos.html</text><rect x="1406" y="2620" width="137" height="40" style="fill:green;stroke:black;stroke-width:1" /><text x="1416" y="2630" font-size="8" style="fill:white">Conócenos</text><rect x="1120" y="2720" width="200" height="40" style="fill:white;stroke:black;stroke-width:1" /><text x="1130" y="2730" font-size="10" style="fill:blue">li</text><path d="M1100 2540 C1120 2540 1100 2740 1120 2740" style="fill:transparent;stroke:black" /><rect x="1340" y="2720" width="200" height="40" style="fill:white;stroke:black;stroke-width:1" /><text x="1350" y="2730" font-size="10" style="fill:blue">a</text><path d="M1320 2740 C1340 2740 1320 2740 1340 2740" style="fill:transparent;stroke:black" /><text x="1350" y="2740" font-size="8" style="fill:black">href: productos.html</text><rect x="1406" y="2720" width="137" height="40" style="fill:green;stroke:black;stroke-width:1" /><text x="1416" y="2730" font-size="8" style="fill:white">Productos</text><rect x="1120" y="2820" width="200" height="40" style="fill:white;stroke:black;stroke-width:1" /><text x="1130" y="2830" font-size="10" style="fill:blue">li</text><path d="M1100 2540 C1120 2540 1100 2840 1120 2840" style="fill:transparent;stroke:black" /><rect x="1340" y="2820" width="200" height="40" style="fill:white;stroke:black;stroke-width:1" /><text x="1350" y="2830" font-size="10" style="fill:blue">a</text><path d="M1320 2840 C1340 2840 1320 2840 1340 2840" style="fill:transparent;stroke:black" /><text x="1350" y="2840" font-size="8" style="fill:black">href: contacto.html</text><rect x="1406" y="2820" width="137" height="40" style="fill:green;stroke:black;stroke-width:1" /><text x="1416" y="2830" font-size="8" style="fill:white">Contacto</text><rect x="1120" y="2920" width="200" height="40" style="fill:white;stroke:black;stroke-width:1" /><text x="1130" y="2930" font-size="10" style="fill:blue">li</text><path d="M1100 2540 C1120 2540 1100 2940 1120 2940" style="fill:transparent;stroke:black" /><rect x="1340" y="2920" width="200" height="40" style="fill:white;stroke:black;stroke-width:1" /><text x="1350" y="2930" font-size="10" style="fill:blue">a</text><path d="M1320 2940 C1340 2940 1320 2940 1340 2940" style="fill:transparent;stroke:black" /><text x="1350" y="2940" font-size="8" style="fill:black">href: locales.html</text><rect x="1406" y="2920" width="137" height="40" style="fill:green;stroke:black;stroke-width:1" /><text x="1416" y="2930" font-size="8" style="fill:white">Locales</text><rect x="680" y="3120" width="200" height="40" style="fill:white;stroke:black;stroke-width:1" /><text x="690" y="3130" font-size="10" style="fill:blue">div</text><path d="M660 2290 C680 2290 660 3140 680 3140" style="fill:transparent;stroke:black" /><text x="690" y="3140" font-size="8" style="fill:black">class: accesibilidad</text><rect x="900" y="3120" width="200" height="40" style="fill:white;stroke:black;stroke-width:1" /><text x="910" y="3130" font-size="10" style="fill:blue">h3</text><path d="M880 3140 C900 3140 880 3140 900 3140" style="fill:transparent;stroke:black" /><rect x="966" y="3120" width="137" height="40" style="fill:green;stroke:black;stroke-width:1" /><text x="976" y="3130" font-size="8" style="fill:white">Sobre la accesibilidad</text><rect x="900" y="3170" width="200" height="40" style="fill:white;stroke:black;stroke-width:1" /><text x="910" y="3180" font-size="10" style="fill:blue">p</text><path d="M880 3140 C900 3140 880 3190 900 3190" style="fill:transparent;stroke:black" /><rect x="966" y="3170" width="137" height="40" style="fill:green;stroke:black;stroke-width:1" /><text x="976" y="3180" font-size="8" style="fill:white">Web optimizada para su uso en los siguientes navegadores:</text><rect x="1120" y="3170" width="200" height="40" style="fill:white;stroke:black;stroke-width:1" /><text x="1130" y="3180" font-size="10" style="fill:blue">br</text><path d="M1100 3190 C1120 3190 1100 3190 1120 3190" style="fill:transparent;stroke:black" /><rect x="966" y="3220" width="137" height="40" style="fill:green;stroke:black;stroke-width:1" /><text x="976" y="3230" font-size="8" style="fill:white">
            Internet Explorer 8, Firefox 2.0 o superior, Safari, Ópera y Chrome.</text><rect x="1120" y="3220" width="200" height="40" style="fill:white;stroke:black;stroke-width:1" /><text x="1130" y="3230" font-size="10" style="fill:blue">br</text><path d="M1100 3190 C1120 3190 1100 3240 1120 3240" style="fill:transparent;stroke:black" /><rect x="966" y="3270" width="137" height="40" style="fill:green;stroke:black;stroke-width:1" /><text x="976" y="3280" font-size="8" style="fill:white">
            Sitio web creado con CSS &amp; HTML válidos. • Accesibilidad AAA.</text><rect x="680" y="3370" width="200" height="40" style="fill:white;stroke:black;stroke-width:1" /><text x="690" y="3380" font-size="10" style="fill:blue">div</text><path d="M660 2290 C680 2290 660 3390 680 3390" style="fill:transparent;stroke:black" /><text x="690" y="3390" font-size="8" style="fill:black">class: clear</text></svg>